G04 ================== begin FILE IDENTIFICATION RECORD ==================*
G04 Layout Name:  L:/TIE proiect/TIE_PROIECT.brd*
G04 Film Name:    BOTTOM*
G04 File Format:  Gerber RS274X*
G04 File Origin:  Cadence Allegro 16.6-2015-S059*
G04 Origin Date:  Mon Jun 03 20:12:22 2024*
G04 *
G04 Layer:  ETCH/BOTTOM*
G04 Layer:  PIN/BOTTOM*
G04 Layer:  VIA CLASS/BOTTOM*
G04 *
G04 Offset:    (0.00 0.00)*
G04 Mirror:    No*
G04 Mode:      Positive*
G04 Rotation:  0*
G04 FullContactRelief:  No*
G04 UndefLineWidth:     0.00*
G04 ================== end FILE IDENTIFICATION RECORD ====================*
%FSLAX25Y25*MOIN*%
%IR0*IPPOS*OFA0.00000B0.00000*MIA0B0*SFA1.00000B1.00000*%
%ADD13C,.024*%
%ADD11C,.06*%
%ADD12C,.065*%
%ADD14R,.06X.06*%
%ADD10C,.13*%
%ADD15C,.0472*%
%ADD16C,.0079*%
G75*
%LPD*%
G75*
G54D10*
X14100Y14100D03*
X265900Y205900D03*
G54D11*
X20000Y40000D03*
Y50000D03*
X40000Y30000D03*
Y40000D03*
Y50000D03*
X20000Y60000D03*
Y70000D03*
X40000Y60000D03*
X30000Y140000D03*
Y200000D03*
X20000D03*
X30000Y180000D03*
X60000Y30000D03*
Y40000D03*
Y50000D03*
Y60000D03*
X70000Y170000D03*
X60000Y160000D03*
X50000Y190000D03*
X80000Y160000D03*
X90000Y190000D03*
X130000Y40000D03*
X120000D03*
X110000D03*
Y70000D03*
X120000D03*
X130000D03*
Y90000D03*
X120000D03*
X110000D03*
Y120000D03*
X120000D03*
X130000D03*
X110000Y140000D03*
X130000Y160000D03*
Y190000D03*
X110000Y200000D03*
X160000Y40000D03*
X150000D03*
X140000D03*
Y70000D03*
X150000D03*
X160000D03*
Y90000D03*
X150000D03*
X140000D03*
Y120000D03*
X150000D03*
X160000D03*
X140000Y160000D03*
X150000D03*
X160000D03*
X140000Y190000D03*
X150000D03*
X160000D03*
X180000Y40000D03*
X170000D03*
Y70000D03*
X180000Y90000D03*
X170000D03*
Y120000D03*
Y160000D03*
X180000D03*
X190000D03*
X170000Y190000D03*
X180000D03*
X220000Y30000D03*
Y40000D03*
Y50000D03*
Y60000D03*
X200000Y140000D03*
X240000Y30000D03*
Y40000D03*
Y50000D03*
Y60000D03*
X250000Y160000D03*
X240000Y170000D03*
X260000Y30000D03*
Y40000D03*
Y50000D03*
Y60000D03*
Y140000D03*
Y170000D03*
G54D12*
X40000Y80000D03*
X20000D03*
X40000Y120000D03*
X20000D03*
X60000Y80000D03*
Y120000D03*
X50000Y140000D03*
X90000D03*
X120000Y130000D03*
X160000D03*
X220000Y80000D03*
Y120000D03*
Y160000D03*
Y200000D03*
X240000Y80000D03*
Y120000D03*
X260000Y80000D03*
Y120000D03*
G54D13*
X32500Y70000D03*
X67500Y67500D03*
X57500D03*
X69921Y70079D03*
X95000Y20000D03*
X90000Y50000D03*
X77500D03*
X90000Y60000D03*
X77500Y62500D03*
X92500Y87500D03*
Y102500D03*
X110000Y22500D03*
X130000D03*
X150000Y17500D03*
X142500Y25000D03*
X182500Y135000D03*
X190000Y132500D03*
X205000Y20000D03*
X210000Y35000D03*
Y72500D03*
X200000Y77500D03*
X207500Y82500D03*
X195000D03*
X230000Y20000D03*
G54D14*
X180000Y70000D03*
Y120000D03*
X190000Y190000D03*
G54D15*
G01X20000Y40000D02*
X30000D01*
X40000Y30000D01*
G01D02*
X60000D01*
G01X40000Y120000D02*
Y180000D01*
X50000Y190000D01*
G01X40000Y120000D02*
X60000D01*
G01X20000D02*
X40000D01*
G01X20000Y140000D02*
Y120000D01*
G01Y200000D02*
Y140000D01*
G01X30000D02*
X20000D01*
G01X30000Y200000D02*
X80000D01*
X90000Y190000D01*
G01X30000Y180000D02*
Y200000D01*
G01X160000Y30000D02*
X60000D01*
G01Y120000D02*
X110000D01*
G01X92500Y102500D02*
Y87500D01*
G01X160000Y30000D02*
X170000D01*
G01X160000Y40000D02*
Y30000D01*
G01Y90000D02*
X170000D01*
G01X220000Y30000D02*
X170000D01*
G01D02*
Y40000D01*
G01X180000Y90000D02*
Y84720D01*
X184720Y80000D01*
X190000D01*
X195000Y75000D01*
Y44720D01*
X190280Y40000D01*
X180000D01*
G01X170000Y90000D02*
Y70000D01*
G01Y120000D02*
Y122500D01*
X175000Y127500D01*
X186931D01*
X187635Y126796D01*
X192365D01*
X193069Y127500D01*
X215280D01*
X220000Y122780D01*
Y120000D01*
G01X190000Y160000D02*
Y132500D01*
G01X220000Y30000D02*
X240000D01*
G01X220000Y120000D02*
X240000D01*
G01Y30000D02*
X260000D01*
G01X240000Y120000D02*
X260000D01*
G54D16*
G01X57500Y67500D02*
X52500D01*
X50000Y65000D01*
Y40790D01*
X49210Y40000D01*
X40000D01*
G01X20000Y50000D02*
X27500D01*
X30000Y52500D01*
Y67500D01*
X32500Y70000D01*
G01X20000Y80000D02*
Y70000D01*
G01X40000Y80000D02*
Y60000D01*
G01X120000Y90000D02*
Y78290D01*
X119210Y77500D01*
X100018D01*
X97500Y74982D01*
Y40790D01*
X96710Y40000D01*
X60000D01*
G01Y80000D02*
Y68648D01*
X60079Y68569D01*
Y66431D01*
X60000Y66352D01*
Y60000D01*
G01X67500Y67500D02*
X92500D01*
X95000Y70000D01*
Y74991D01*
X100009Y80000D01*
X109210D01*
X110000Y80790D01*
Y90000D01*
G01X130000Y120000D02*
Y100000D01*
X127500Y97500D01*
X105000D01*
X102500Y95000D01*
Y83290D01*
X101710Y82500D01*
X100000D01*
X92500Y75000D01*
Y72500D01*
X90079Y70079D01*
X69921D01*
G01X50000Y140000D02*
Y156710D01*
X53290Y160000D01*
X60000D01*
G01X110000Y200000D02*
X98290D01*
X97500Y199210D01*
Y180790D01*
X96710Y180000D01*
X62500D01*
X60000Y177500D01*
Y160000D01*
G01X95000Y20000D02*
X107500D01*
X110000Y22500D01*
G01X77500Y50000D02*
X90000D01*
G01X77500Y62500D02*
X87500D01*
X90000Y60000D01*
G01X130000Y160000D02*
X98290D01*
X97500Y159210D01*
Y142500D01*
X95000Y140000D01*
X90000D01*
G01X150000Y164210D02*
X146710Y167500D01*
X82500D01*
X80000Y165000D01*
Y160000D01*
G01X205000Y20000D02*
X151148D01*
X151069Y20079D01*
X148931D01*
X148852Y20000D01*
X132500D01*
X130000Y22500D01*
G01X160000Y155000D02*
X157500Y152500D01*
X128290D01*
X127500Y151710D01*
Y142500D01*
X125000Y140000D01*
X110000D01*
G01X120000Y130000D02*
Y120000D01*
G01X130000Y160000D02*
X140000D01*
G01X150000Y17500D02*
X152500Y15000D01*
X265000D01*
X267500Y17500D01*
Y49210D01*
X266710Y50000D01*
X260000D01*
G01X230000Y20000D02*
X215000D01*
X210000Y25000D01*
X142500D01*
G01X150000Y164210D02*
Y160000D01*
G01Y164210D02*
X150790Y165000D01*
X168896D01*
X170000Y163896D01*
Y160000D01*
G01X182500Y135000D02*
Y150000D01*
X180000Y152500D01*
X162500D01*
X160000Y155000D01*
G01Y160000D02*
Y155000D01*
G01X180000Y190000D02*
Y194210D01*
X176710Y197500D01*
X162500D01*
X160000Y195000D01*
Y190000D01*
G01X150000D02*
Y195000D01*
G01D02*
X147500Y197500D01*
X143290D01*
X140000Y194210D01*
Y190000D01*
G01X150000Y195000D02*
X152500Y197500D01*
X157500D01*
X160000Y200000D01*
X220000D01*
G01X170000Y160000D02*
X180000D01*
G01X200000Y140000D02*
Y182500D01*
X197500Y185000D01*
X170790D01*
X170000Y185790D01*
Y190000D01*
G01X190000D02*
X180000D01*
G01X190000D02*
X235000D01*
X240000Y185000D01*
Y170000D01*
G01X210000Y35000D02*
Y47500D01*
X212500Y50000D01*
X220000D01*
G01X200000Y77500D02*
X205000D01*
X210000Y72500D01*
G01X220000Y80000D02*
Y60000D01*
G01X195000Y82500D02*
X207500D01*
G01X240000Y80000D02*
Y60000D01*
G01X260000Y80000D02*
Y60000D01*
G01Y170000D02*
Y140000D01*
M02*
