G04 ================== begin FILE IDENTIFICATION RECORD ==================*
G04 Layout Name:  L:/TIE proiect/TIE_PROIECT.brd*
G04 Film Name:    TOP*
G04 File Format:  Gerber RS274X*
G04 File Origin:  Cadence Allegro 16.6-2015-S059*
G04 Origin Date:  Tue Jun 04 08:18:04 2024*
G04 *
G04 Layer:  ETCH/TOP*
G04 Layer:  PIN/TOP*
G04 Layer:  VIA CLASS/TOP*
G04 *
G04 Offset:    (0.00 0.00)*
G04 Mirror:    No*
G04 Mode:      Positive*
G04 Rotation:  0*
G04 FullContactRelief:  No*
G04 UndefLineWidth:     0.00*
G04 ================== end FILE IDENTIFICATION RECORD ====================*
%FSLAX25Y25*MOIN*%
%IR0*IPPOS*OFA0.00000B0.00000*MIA0B0*SFA1.00000B1.00000*%
%ADD13C,.024*%
%ADD11C,.06*%
%ADD12C,.065*%
%ADD14R,.06X.06*%
%ADD10C,.13*%
%ADD15C,.0472*%
%ADD16C,.0079*%
G75*
%LPD*%
G75*
G54D10*
X14100Y14100D03*
X265900Y205900D03*
G54D11*
X20000Y40000D03*
Y50000D03*
X40000Y30000D03*
Y40000D03*
Y50000D03*
X20000Y60000D03*
Y70000D03*
X40000Y60000D03*
X30000Y140000D03*
Y200000D03*
X20000D03*
X30000Y180000D03*
X60000Y30000D03*
Y40000D03*
Y50000D03*
Y60000D03*
X70000Y170000D03*
X60000Y160000D03*
X50000Y190000D03*
X80000Y160000D03*
X90000Y190000D03*
X130000Y40000D03*
X120000D03*
X110000D03*
Y70000D03*
X120000D03*
X130000D03*
Y90000D03*
X120000D03*
X110000D03*
Y120000D03*
X120000D03*
X130000D03*
X110000Y140000D03*
X130000Y160000D03*
Y190000D03*
X110000Y200000D03*
X160000Y40000D03*
X150000D03*
X140000D03*
Y70000D03*
X150000D03*
X160000D03*
Y90000D03*
X150000D03*
X140000D03*
Y120000D03*
X150000D03*
X160000D03*
X140000Y160000D03*
X150000D03*
X160000D03*
X140000Y190000D03*
X150000D03*
X160000D03*
X180000Y40000D03*
X170000D03*
Y70000D03*
X180000Y90000D03*
X170000D03*
Y120000D03*
Y160000D03*
X180000D03*
X190000D03*
X170000Y190000D03*
X180000D03*
X220000Y30000D03*
Y40000D03*
Y50000D03*
Y60000D03*
X200000Y140000D03*
X240000Y30000D03*
Y40000D03*
Y50000D03*
Y60000D03*
X250000Y160000D03*
X240000Y170000D03*
X260000Y30000D03*
Y40000D03*
Y50000D03*
Y60000D03*
Y140000D03*
Y170000D03*
G54D12*
X40000Y80000D03*
X20000D03*
X40000Y120000D03*
X20000D03*
X60000Y80000D03*
Y120000D03*
X50000Y140000D03*
X90000D03*
X120000Y130000D03*
X160000D03*
X220000Y80000D03*
Y120000D03*
Y160000D03*
Y200000D03*
X240000Y80000D03*
Y120000D03*
X260000Y80000D03*
Y120000D03*
G54D13*
X32500Y70000D03*
X67500Y67500D03*
X57500D03*
X69921Y70079D03*
X95000Y20000D03*
X90000Y50000D03*
X77500D03*
X90000Y60000D03*
X77500Y62500D03*
X92500Y87500D03*
Y102500D03*
X110000Y22500D03*
X130000D03*
X150000Y17500D03*
X142500Y25000D03*
X182500Y135000D03*
X190000Y132500D03*
X205000Y20000D03*
X210000Y35000D03*
Y72500D03*
X200000Y77500D03*
X207500Y82500D03*
X195000D03*
X230000Y20000D03*
G54D14*
X180000Y70000D03*
Y120000D03*
X190000Y190000D03*
G54D15*
G01X50000D02*
Y202500D01*
X55000Y207500D01*
X122500D01*
X130000Y200000D01*
Y190000D01*
G01X110000Y70000D02*
X100000D01*
X92500Y77500D01*
Y87500D01*
G01Y102500D02*
X170000D01*
G01X92500D02*
Y112500D01*
X100000Y120000D01*
X110000D01*
G01X190000Y160000D02*
Y172780D01*
X185280Y177500D01*
X95000D01*
X90000Y182500D01*
Y190000D01*
G01X170000Y70000D02*
Y40000D01*
G01Y120000D02*
Y102500D01*
G01D02*
Y90000D01*
G01X190000Y132500D02*
Y94720D01*
X185280Y90000D01*
X180000D01*
G54D16*
G01X95000Y20000D02*
X50000D01*
X47500Y22500D01*
Y49210D01*
X46710Y50000D01*
X40000D01*
G01X20000Y60000D02*
X25000D01*
X27500Y62500D01*
Y71710D01*
X28448Y72658D01*
X76710D01*
X77500Y71868D01*
Y62500D01*
G01X32500Y70000D02*
X56352D01*
X56431Y70079D01*
X69921D01*
G01X60000Y50000D02*
X77500D01*
G01X57500Y67500D02*
X67500D01*
G01X90000Y50000D02*
X119210D01*
X120000Y49210D01*
Y40000D01*
G01X130000Y90000D02*
Y96223D01*
X128723Y97500D01*
X87501D01*
X82500Y92499D01*
Y40000D01*
X109274Y13226D01*
X192436D01*
X205000Y25790D01*
Y35000D01*
X210000Y40000D01*
X220000D01*
G01X90000Y60000D02*
X129210D01*
X130000Y60790D01*
Y70000D01*
G01X110000Y22500D02*
Y40000D01*
G01X130000Y22500D02*
Y40000D01*
G01X150000D02*
Y17500D01*
G01X140000Y40000D02*
Y27500D01*
X142500Y25000D01*
G01X140000Y90000D02*
X152500Y77500D01*
X200000D01*
G01X195000Y82500D02*
X152509D01*
X150000Y85009D01*
Y90000D01*
G01X160000Y130000D02*
Y135000D01*
X162500Y137500D01*
X181352D01*
X181431Y137579D01*
X183569D01*
X183648Y137500D01*
X191710D01*
X192500Y138290D01*
Y150000D01*
X195000Y152500D01*
X204210D01*
X205000Y153290D01*
Y196710D01*
X204210Y197500D01*
X153290D01*
X150000Y194210D01*
Y190000D01*
G01X200000Y140000D02*
X205000Y135000D01*
Y83648D01*
X204921Y83569D01*
Y81431D01*
X205000Y81352D01*
Y70790D01*
X204210Y70000D01*
X180000D01*
G01X182500Y135000D02*
X180000Y132500D01*
Y120000D01*
G01X205000Y20000D02*
X210000Y25000D01*
Y35000D01*
G01X240000Y40000D02*
X232500D01*
X230000Y42500D01*
Y70000D01*
X227500Y72500D01*
X210000D01*
G01X207500Y82500D02*
Y77500D01*
X209921Y75079D01*
X211069D01*
X211148Y75000D01*
X245000D01*
X250000Y70000D01*
Y45774D01*
X255774Y40000D01*
X260000D01*
G01Y170000D02*
Y182500D01*
X257500Y185000D01*
X232500D01*
X220000Y172500D01*
Y160000D01*
G01X230000Y20000D02*
X246710D01*
X247500Y20790D01*
Y49210D01*
X246710Y50000D01*
X240000D01*
M02*
